<?xml version="1.0" encoding="UTF-8"?>
<svg version="1.1" viewBox="0 0 2048 599" width="485" height="142"
  xmlns="http://www.w3.org/2000/svg">
  <path transform="translate(1490,92)"
    d="m0 0h15l15 5 27 11 47 17 46 18 27 11 25 10 16 7 11 2 16-6 36-16 17-5h14l20 8 27 13 28 13 24 11 8 4 1 2-1 152-2 8-6 10-7 6-29 14-62 28-15 6-1 3 2 14-2 18-4 14-8 16-12 14-12 9-16 8-15 5-20 4-16 2h-66l-25-4-21-6-16-8-11-8-10-11-8-13-6-14-3-13v-24l6-29 8-27 10-27 3-7-13-2-28-10-78-30-20-8-9-6-7-8-5-11-1-7v-47l1-28 10-9 11-9 13-12 11-9 11-10 11-9 15-14 14-11z"
    fill="#714839" />
  <path transform="translate(1131,138)"
    d="m0 0 7 1 6 4 6 7 7 15v10l-3 9-2 15-10 34-12 38-13 52 10-1h17l14-3 21-3 14-1 3-10 8-9 15-8 6-2 9 1 10 7 16 16 9 13 8 16 4 13v23l-3 12-5 12-10 16-11 13-7 8-27 27-8 5-10 3h-15l-12-6-10-9-9-14-4-10v-15l5-18 10-25 7-14-23 7-27 10-16 10-5 5-5 21-3 17v15l3 8-1 7-6 9-4 1-8-9-7-10-7 1-15 10-8 3h-24l-9-6-10-12-8-16-3-11v-10l-2-2-14 21-13 17-17 17-10 4-8 2-9-1-7-1-9 8-10 4-6 1h-24l-16-7-8-6-9-9-8-13-6-15-4-18v-25l-10 19-10 13-11 13-12 13-18 18-8 5-10 3h-15l-7-3-9-6-9-9-8-13-4-4-16 10-9 7-9 6-12 5-12 3h-17l-10-4-9-7-9-10-6-11-5 2-17 11-11 9-13 6-16 4h-16l-12-5-12-11-7-11-4-12-1-5v-15l-1-2-12 16-9 10-15 16-5 5h-2l-2 4-10 9-10 4-4 1h-15l-9-4-9-7-7-7-2-5-5 1-6 8-6 7-14 4h-10l-10-4-10-9-6-7v-2l-7 1-12 8-14 10-10 7-16 6-17 5h-8l-4-2-2 2-10-1-13-7-13-11-10-10-10-15-9-17-6-16-4-16-1-8v-24l5-28 10-34 8-19 20-40 14-21 16-21 12-14 10-10 12-8 3-1h8l15 3 16 8 11 7 6 8 3 10v12l-5 15-8 16-6 8-5 4-9-2-10-7-4-5 1-6 6-15 3-8 1-7-2-1-6 3-10 11-11 15-17 28-11 19-6 14-12 35-7 26-5 26-1 8v20l3 16 6 15 6 8 5 3h18l21-6 20-8 21-11 8-5 1-17 4-20 11-41 9-26 4-8 3-2 10-1 10 3 9 6 6 8 1 2-1 11-8 37-6 18h6l2 1-2 5-7 14-6 7-2 7v7l10-3 15-9 6-14 11-28 9-20 8-12 12-14 7-7 1-4-5-5-2-3 1-5 6-8 14-8 10-4 8 1 10 6 17 17 10 15 7 14 5 17 2-2 8-16 8-11 9-13 10-16 5-6 10-6 7-3h11l11 4 9 7 6 8 4 10 1 5v8l-4 17-6 12-7 1-8-5-4-6-4-10v-2l-4 1-12 17-13 22-8 16-7 18-5 18v7l5 3h9l31-12 30-12 5-3 6-28 4-12 9-22 7-11 13-18 10-16 9-10 14-7h12l12 5 10 9 7 14 1 5v10l-4 16-5 10-4 3-7-1-5-4-9-18-3 1-7 10-12 19-12 22-8 20-6 21 1 7 4 2h9l31-12 34-14 5-4 11-26 12-26 10-13 11-12 5-6-1-4-7-6 1-5 6-7 11-7 11-5 8-1 10 5 10 9 7 7 10 13 9 16 6 20v2h2l2-11 6-25 11-37 8-31 12-36 6-15 18-38 4-8 3-1 14 6 6 7 3 7v14l-14 47-18 56-12 38-6 18-6 27-4 23-1 8v30l3 8 7 3h13l12-2 8-4 3-8 5-17 10-24 11-22 17-28 10-13 14-14 11-9 9-8 12-7 5 1 6 3 6-1 2-5 7-1 16 4 7 5 3 5 1 6-3 15-8 30-5 26-4 28-1 9v21l2 6 9-1 17-5 15-6 1-4 1-20 1-13v-12l-6-11-6-9 1-9 3-12 1-1 13-2 4-13 13-64 8-30 15-52 9-30 6-9zm-711 198-3 3-11 16-9 14-19 38-4 10v2l6-1 7-7 10-3 10-13 9-14 5-11 5-15 1-10-4-8zm818 0-10 13-10 15-20 39-7 16 7-1 8-7 9-3 7-8 12-18 7-16 4-13v-9l-4-8zm-475 1-7 11-8 11-9 16-16 31-4 12 4 1 8-7 3-3 5 1 5-4 14-20 7-14 5-15 2-10-4-9zm217 7-7 6-12 19-9 15-9 16v3l5-1 9-11 17-29 10-16v-2z"
    fill="#AC7660" />
  <path transform="translate(1490,92)"
    d="m0 0h15l15 5 27 11 47 17 46 18 27 11 25 10 16 7 11 2 16-6 36-16 17-5h14l20 8 27 13 28 13 24 11 8 4 1 2v6h-2l-2-6-17-8-18-8-22-10-14-7-25-11-12-3h-11l-14 4-35 16-45 19-27 11-13 7-3 4-1 3-1 50-3 5-7 3-18 2-18 6-14 8-10 8-10 9-8 9-9 14-5 11-1-2-13-2-28-10-78-30-20-8-9-6-7-8-5-11-1-7v-47l1-28 10-9 11-9 13-12 11-9 11-10 11-9 15-14 14-11z"
    fill="#FDF8CE" />
  <path transform="translate(1788,146)"
    d="m0 0h14l20 8 27 13 28 13 24 11 8 4 1 2v6h-2l-2-6-17-8-18-8-22-10-14-7-25-11-12-3h-11l-14 4-35 16-45 19-27 11-13 7-3 4-1 3-1 50-3 5-7 3-18 2-18 6-14 8-10 8-10 9-8 9-9 14-5 11-1-2-13-2-28-10-78-30-20-8-9-6-7-8-5-11-1-7v-47l1-22 3-1-1 5 4-2h15l21 6 12 4 27 11 23 9 22 9 8 3 23 8 31 13 13 5 20 6 16 4h13l5-2 1-4 1-37 1-14 3-6 7-6 22-10 35-13 12-2 13-5 36-16z"
    fill="#EADCB5" />
  <path transform="translate(1787,149)"
    d="m0 0h11l12 3 38 17 14 7 24 11 18 8 4 3 1 5v146l-2 8-6 10-7 6-29 14-62 28-15 6-1 3 2 14-2 18-4 14-8 16-12 14-12 9-16 8-15 5-20 4-16 2h-66l-25-4-21-6-16-8-11-8-10-11-8-13-6-14-3-13v-24l6-29 8-27 10-27 2-5h2l1-5 7-13 11-14 10-10 13-10 14-8 18-6 18-2 7-3 2-4 1-50 3-6 9-6 21-9 45-19 36-16 14-6zm95 51-11 4-8 3-23 11-22 9-16 5-25 12-11 3-13-1-8-3-10-5-12-4-9-6-11-9-3-6-4-3-9 1-5 2h-10l-6-1h-8l-5 4-3 50-1 4-6 3-19 3-18 6-15 8-11 9-10 9-11 13-12 21-7 15-11 33-5 23-2 17v22l3 14 7 15 6 9 11 11 13 9 14 7 15 4 25 5h71l25-4 3-2 11-2 16-7 12-9 10-9 8-10 8-15 4-14 1-6v-22l3-9 4-3 10-3 21-10v-2l7-1 30-13 27-12 11-8 4-5 3-8 1-5 1-21v-47l-1-64-2-11-4-4z"
    fill="#AF7864" />
  <path transform="translate(1882,200)"
    d="m0 0h18l4 4 2 11 1 82v34l-1 16-3 11-4 6-9 7-16 8-46 20h-5v2l-26 12-7 2-3 3-2 8v22l-4 16-4 10-7 12-11 12-14 11-16 8-6 2-10 2-5 2-21 3h-71l-34-7-15-6-14-9-12-11-7-8-8-16-3-10-1-7v-22l3-23 5-20 11-33 8-16 10-17 12-14 12-11 13-9 15-7 13-4 19-3 6-3 1-4 3-50 5-4h8l6 1h10l8-3h6l5 4 2 5 13 11 12 6 12 4 9 5 10 2h7l13-4 25-12 16-5 22-9 16-8 12-4 7-3zm-10 23-9 3-13 3-26 10-17 6-15 6-15 7-9 5-4 4-7 21-4 8-1 4-4-1-10-6-18-10-10-5-18-5-27-4-11 1-11 5-7 2-17 3-16 6-10 6-16 13-9 9-11 15-12 25-6 16-7 24-4 22-2 26 1 13 5 16 7 12 13 13h2v2l14 9 10 5 13 3 9 3 12 1 3 1h22l7-2 5 1 25 1h16l26-5 11-5 9-4 11-6 10-8v-2l4-2 6-7 8-15 4-16 1-13v-9l2-10 5-7 4-2 19-10 13-5 11-5 13-5 21-10 11-6 10-7 9-12 2-11-1-59-1-20-4-20-5-12-3-3h-9z"
    fill="#8C5A48" />
  <path transform="translate(1626,298)"
    d="m0 0 21 2 18 6 16 8 10 7 14 12 12 12 8 13 7 18 4 22v21l-4 19-5 13-10 14-9 10-10 9-13 8-19 7-10 2h-23l-15-4-14-7-10-8-7-7-8-13-6-14-3-13v-13l4-16 6-12 9-10 8-7 13-8 12-4h18l13 4 10 7 9 10 7 14 2 12-1 12-4 11-6 10-7 7-13 5h-18l-9-3-6-4-9-9-3-8v-13l4-4h7l4 6 4 11 4 5 5 2 11 1 9-3 7-6 4-9v-12l-4-11-6-9-9-6-8-3h-16l-11 4-11 8-6 8-5 12-2 15 2 17 4 10 9 12 10 8 13 6 12 3h21l16-4 10-4 13-9 10-10 8-13 5-13 2-13v-14l-5-23-5-13-6-10-10-12-7-8-10-9-14-8-18-6-19-4-6-3-1-6 3-4z"
    fill="#EADCB5" />
  <path transform="translate(1506,112)"
    d="m0 0h5l4 4v6l-6 8-13 12-7 6-6 8v4l7-1 14-8 18-11 14-7 15-5 9 1 6 7v8l-6 11-7 8-8 7-9 8-10 8h-2l-1 8 10-1 12-6 17-12 15-11 14-8 11-4h15l6 4 4 6v9l-4 9-8 11-15 15-7 6-2 3v6l18 1 5 3 1 1-1 7-6 4-7 2-8 1h-12l-9-3-4-6-1-6 3-9 7-11 24-24 2-4v-5h-7l-14 9-10 8-23 14-15 7-7 2h-15l-8-4-3-5v-10l5-10 10-13 1-5-8 3-16 9-16 8-3 1h-15l-6-5-1-2v-9l7-13 11-13 22-22 10-8z"
    fill="#AB7561" />
  <path transform="translate(1505,106)"
    d="m0 0h8l7 6 2 5v11l9-1 11-4 5-1h12l8 5 5 6 2 9-4 10-7 8-13 12-1 3 7-3 14-12 14-9 14-6 12-1 9 2 8 5 4 5 3 6v8l-4 11-5 9-8 8-7 8-2 2v6l6 2 7 6 1 2v8l-3 6-4 3-12 4-7 1h-10l-11-2-6-3-5-6-2-5v-8l5-12 6-9 1-6-12 6-15 10-14 6-13 2-11-2-7-4-6-7-1-3v-10l2-9-8 1-13 6-3 1h-15l-7-4-5-8v-10l8-16 10-13 6-7h2l2-4 6-5 5-5 9-8 8-5zm1 6-9 6-13 12-18 18-9 12-5 10v9l5 6 2 1h15l13-6 21-11 5-3 4-1-1 5-12 16-3 7v10l4 6 7 3h15l14-5 15-8 16-10 11-9 13-8h7l-1 7-7 8-18 18-7 11-3 9 2 8 5 5 7 2h12l12-2 8-4 2-3v-5l-3-3-3-1-18-1v-6l7-8 8-7 10-10 9-13 2-6v-9l-4-6-6-4h-15l-15 6-16 10-13 10-15 10-10 5-10 1v-5l1-3 4-2 14-11 14-14 6-7 4-8v-8l-6-7-9-1-18 6-18 10-16 10-12 6h-4l1-6 10-11 8-7 10-9 3-5v-6l-4-4z"
    fill="#EADCB5" />
  <path transform="translate(1893,203)"
    d="m0 0h7l3 5 1 6 1 37v94l-2 9-3 6-4 5-9 6-12 6-21 9-29 13h-2v2l-26 12-7 2-3 3-2 8v22l-4 16-4 10-7 12-11 12-14 11-16 8-6 2-10 2-5 2-21 3h-71l-34-7-15-6-14-9-12-11-7-8-8-16-3-10-1-7v-22l3-23 5-20 11-33 8-16 10-17 12-14 12-11 13-9 15-7 13-4 19-3 6-3 4-5v3l7 1v1l-8 2-12 5-21 4-16 6-10 6-16 13-8 8-11 15-12 25-6 16-7 24-4 22-2 26 1 13 5 16 7 12 2 4 4 2v2l4 2 4 3v2l5 2 9 6 10 5 13 3 9 3 12 1 3 1h22l7-2 5 1 25 1h16l26-5 11-5 9-4 11-6 9-7 5-5 7-9 7-15 4-20v-15l2-10 6-8 4-2 19-10 13-5 11-5 13-5 21-10 11-6 9-6 9-12 2-11-1-59-1-20-4-20-5-12-2-2h-9l-5-1-9 3-13 3-26 10-17 6-15 6-15 7-9 5-3 3-7 21-2 2 1-8 2-9 3-9 6-4 9-4 25-11 10-4 26-11 16-6 21-8 15-7 5-1v-2l-10 1 3-2z"
    fill="#835E4C" />
  <path transform="translate(1506,118)"
    d="m0 0 3 3-3 5-16 15-4 5h-3l-1 4-6 4-6 9v5l10 1 16-8 28-17 15-7 11-4h8l3 3v9l-6 9-9 10-11 9-8 8-8 7-5 6 1 4 2 1h9l13-6 13-7 15-11 19-11 8-4 13-4h8l6 4 2 7-3 10-6 8-7 7-3 4h-2l-1 3-8 7-7 8-2 4v6l3 2 10 1h12v4l-10 4-5 1h-14l-6-4-2-2-1-7 5-10 8-10 8-8 8-7 7-7 3-5v-8l-2-2h-8l-12 6-16 12-13 9-12 7-18 7-4 1h-11l-8-5-1-2v-7l4-9 7-8 7-6 10-8 4-6 1-6-9 1-14 8-15 10-21 10-6 2h-12l-5-5 1-9 7-11 2-3h2l2-4 19-19 8-7 6-5z"
    fill="#815D4B" />
  <path transform="translate(1801,161)"
    d="m0 0h7l8 7 8 14 3 10v7l-4 9-5 4-5 2h-11l-19-5h-4l-1 5v13l-3 5-6 5-3 1h-12l-17-5-12-6-9-7-4-6v-7l5-5h6l17 10 9 4h5l2-19 6-8 5-3h13l20 7h6l-3-9-6-9-1-8z"
    fill="#EADCB5" />
  <path transform="translate(1882,200)"
    d="m0 0h18l4 4 2 11 1 82v34l-1 16-3 11-4 6-9 7-16 8-46 20-3-1 33-15 26-11 9-6 3-1 2-4 3-5 2-5 1-6v-102l-1-29-2-9-1-1h-7l-16 6-11 5-31 13-10 4-24 10-19 9-11 4-4 1h-14l-10-4-12-7-18-7-12-7-15-6-13-4-13-1-5 25v11l-2 9-3 3 3-52 5-4h8l6 1h10l8-3h6l5 4 2 5 13 11 12 6 12 4 9 5 10 2h7l13-4 25-12 16-5 22-9 16-8 12-4 7-3z"
    fill="#9D6955" />
  <path transform="translate(1621,295)"
    d="m0 0h17l15 3 21 8 15 8 13 10 11 11v3l3 1 6 11 2 1 11 27 3 13 1 7v21l-3 14-7 21-9 14-10 12-11 9-14 8-13 5-15 3h-26l-15-4-14-7-11-9-10-11-10-19-4-14-1-6v-15l4-16 8-15 10-9 5-5 14-7 6-1v-2l6-1h19v1l-16 1-14 5-15 10-10 10-5 9-5 12-2 10v13l3 13 7 16 8 12 8 8 14 9 13 5 9 2h23l16-4 15-6 12-8 10-9 9-10 9-14 5-14 3-16v-21l-4-22-7-18-9-14-13-13-11-9-10-7-16-8-18-6-21-2-4 2-1 6 3 3 32 8 10 4 13 8 15 14v3l-6-5-8-7-11-7-13-5-27-6-10-3-4-4-1-7 2-4z"
    fill="#AB7460" />
  <path transform="translate(327,212)"
    d="m0 0 6 1 5 4 4 8 2 8 1 9v16l-5 4-3 1h-8l-10-4-9-8-8-16-2-8v-9l1-1h11l8-2z" fill="#AC7660" />
  <path transform="translate(1645,373)"
    d="m0 0 9 1 9 5 6 7 6 10 3 8v19l-5 14-6 8-12 6-19 2-10-2-9-6-6-8-3-9 1-4 7-1 3 4 4 8 3 3 13 3v2l10-1 10-6 5-6 3-7v-17l-5-12-5-8-13-10z"
    fill="#FDF7CD" />
  <path transform="translate(1540,349)"
    d="m0 0h3l-1 5-12 36-5 23-2 17v22l3 14 7 15 6 9 10 10 13 9 14 7 15 4 25 5h71l25-4 3-2 11-2 16-7 12-9 10-9 9-12 6-12 4-14 1-6v-22l1-5 2 1 2 16-2 18-4 14-8 16-12 14-12 9-16 8-15 5-20 4-16 2h-66l-25-4-21-6-16-8-11-8-10-11-8-13-6-14-3-13v-24l6-29 8-27z"
    fill="#BB8C74" />
  <path transform="translate(1713,374)"
    d="m0 0 2 2 5 18 2 11v14l-3 16-5 12-7 11-12 12-14 9-18 6-6 1h-21l-15-4-13-7-10-9-9-14-3-11-1-12 2-15 5-12 6-8 9-7 7-4 7-2h16l12 5 8 7-1 2-3-3-3-1v-2h-3v-2l-5-1-2-1h-14l-15 4-13 11-4 6-3 10v26l4 12 9 10 7 7 12 6 10 3 15 1 20-3 12-5 11-7 11-10 9-14 5-15 2-18v-10l-3-15z"
    fill="#AB7460" />
  <path transform="translate(1609,366)"
    d="m0 0 4 1-17 7-4 3h-2l-2 4-11 11-7 14-3 14v15l4 17 8 17 8 11 7 7 13 9 15 6 9 2h26l18-4 18-8 11-8 6-5 9-11 9-14 4-11 5-18 1-6v-21l-3-17-3-8 1-3 5 13 3 13 1 16-4 22-8 23-8 14-5 7-5 4-5 5-8 6-10 6-15 6-18 4h-24l-14-4-13-5-9-6-10-9-4-5-8-13-5-12-4-15-1-7v-16l5-17 8-14 11-10 12-7z"
    fill="#815E4C" />
  <path transform="translate(1806,169)"
    d="m0 0 5 1 6 9 3 7 1 7-2 9-5 4h-15l-20-6h-7l-2 6 1 10-2 10-3 3-7 1-2-4 5-6 1-2 1-17 3-5 3-2h10l21 6h9l3-5-1-8-7-14z"
    fill="#FEF8CE" />
  <path transform="translate(1785,421)"
    d="m0 0 2 1 2 16-2 18-4 14-8 16-12 14-12 9-16 8-15 5-20 4-16 2h-66l-5-1v-2h74l25-4 3-2 11-2 16-7 12-9 10-9 9-12 6-12 4-14 1-6v-22z"
    fill="#B88770" />
  <path transform="translate(1615,387)"
    d="m0 0 3 1-8 4-13 12-4 10-1 7v17l3 10 7 10 5 5v2h2l5 5 12 6 13 2h9l22-3 14-7 11-9 2-3h2v-2h2l7-14 6-17 2-21 1-10h1l1 7v10l-2 18-5 15-7 11-9 10-12 9-10 5-11 3-15 2-15-1-15-5-9-6-13-13-4-8-2-7v-26l4-12 8-9 9-7z"
    fill="#815D4B" />
  <path transform="translate(1651,368)"
    d="m0 0 9 2 8 8 7 8 3 5 2 1 4 13v18l-3 9-2 3h-2l-2 5-8 11-9 6-13 4h-12l-11-4-9-7-5-6v-2h-2l-4-8v-13l5-6 2-1h6l5 4 5 14v2h2l3 5-4-2-5-8-4-11-1-1h-7l-3 3v13l3 8 10 10 8 4 5 1h18l13-5 7-7 8-16 2-10-1-14-4-11-6-9-8-9-10-6z"
    fill="#AB7561" />
  <path transform="translate(1621,293)"
    d="m0 0h12l15 2 21 7 16 7 11 8 12 11 3 3-1 2-10-10-14-10-19-9-18-6-11-2h-19l-1 3h-2l-1 9 2 4 7 3 28 6 12 4 12 6 5 5-5-2-16-8-25-6-15-3-5-3-4-5-1-4 3-7z"
    fill="#815E4C" />
  <path transform="translate(1662,372)"
    d="m0 0 5 2 7 6 7 11 4 13v22l-4 11-9 11-9 10-7 4-7 2h-14l-11-4-10-7-7-8-1-3h2l6 8 10 7 9 3h12l13-4 9-6 7-10 3-5h2l2-5 2-7v-18l-3-9v-4l-3-1-6-9-8-7z"
    fill="#815E4C" />
  <path transform="translate(1524,149)" d="m0 0 2 1-13 10-13 8-16 7-4-1 12-7 10-6 14-8z"
    fill="#714839" />
  <path transform="translate(1610,412)"
    d="m0 0 7 1 4 4 7 14 6 5 2 3 8 2v1l-11-1-3-1-3-4v-2h-2l-4-11-3-6-3-2h-6l-6 6v16l-2-2-1-3v-10l4-6 3-3z"
    fill="#8A5E4C" />
  <path transform="translate(1609,366)"
    d="m0 0 4 1-17 7-4 3h-2l-2 4-11 11-7 14h-2l1-6 8-14 11-10 12-7z" fill="#835F4C" />
  <path transform="translate(1662,372)"
    d="m0 0 5 2 7 6 7 11 4 13v22l-1 4h-2l1-7v-18l-3-9v-4l-3-1-6-9-8-7z" fill="#825D4B" />
  <path transform="translate(1549,139)" d="m0 0 6 1 1 4-4 8-3 2-2-1-2-8v-4z" fill="#714839" />
  <path transform="translate(1546,108)" d="m0 0 18 6 30 11-1 2-30-9-8-4-9-4z" fill="#FDFDFD" />
  <path transform="translate(1563,174)" d="m0 0m-1 1m-1 1m-2 1 4 2-16 11-7 3 2-4z" fill="#AA735F" />
  <path transform="translate(1583,519)" d="m0 0 13 2 15 3 2 1v2l-15-2-15-4z" fill="#BC8E76" />
  <path transform="translate(1609,414)" d="m0 0h6l5 4 5 14v2h2l3 5-4-2-5-8-4-11-1-1h-7l-3 3h-2l2-4z"
    fill="#AD7763" />
  <path transform="translate(1532,150)" d="m0 0 6 1v6l-7 9-6 5-2-1 7-6 4-6 1-5h-8l2-2z"
    fill="#9D6955" />
  <path transform="translate(1663,407)" d="m0 0 2 4v12l-5 10-2 1 2-6 1-2 1-14z" fill="#A4725E" />
  <path transform="translate(1662,372)" d="m0 0 5 2 7 6 3 4 2 8-4-4-4-6-8-7z" fill="#986652" />
  <path transform="translate(1682,430)" d="m0 0 1 3-5 8-7 8-3-1 6-8 3-5h2l2-4z" fill="#865F4D" />
  <path transform="translate(1625,429)" d="m0 0h2l5 6 4 4 8 2v1l-11-1-3-1-3-4v-2h-2z" fill="#8C6250" />
  <path transform="translate(1575,175)" d="m0 0 2 2-3 3h-2v2h-3l-1 2-2 2h-3l-1 2v-4l7-6z"
    fill="#714839" />
  <path transform="translate(1474,156)" d="m0 0v3l-1 7 1 1h11l-2 2-9 1-4-2-1-5 4-6z" fill="#9D6955" />
  <path transform="translate(1619,136)" d="m0 0 6 1 19 8-3 1-13-4-9-5z" fill="#FDFDFD" />
  <path transform="translate(1498,92)" d="m0 0h6v2l2 1-4 2h-6l-3-2v-2z" fill="#EADCB5" />
  <path transform="translate(1652,265)" d="m0 0 1 3 7 1v1l-8 2-6 3-3-1 6-4z" fill="#815D4B" />
  <path transform="translate(1698,523)" d="m0 0h8v2l-16 2v-2z" fill="#BC8E76" />
  <path transform="translate(1506,116)" d="m0 0 4 1 1 4-4 6-4 2 4-5 1-4-5-1z" fill="#9D6955" />
  <path transform="translate(1662,372)" d="m0 0 5 2 7 6-1 2-3-3-6-3z" fill="#8E5D4B" />
  <path transform="translate(1727,362)" d="m0 0 3 4 4 9v2l-3-1-4-11z" fill="#AC7662" />
  <path transform="translate(1715,519)" d="m0 0 4 1-3 3-10 1 2-2z" fill="#B2826B" />
  <path transform="translate(1563,174)" d="m0 0m-1 1m-1 1m-2 1 4 2-7 5h-2l2-4z" fill="#A8725E" />
  <path transform="translate(1651,368)" d="m0 0 9 2 3 3-4 1-8-5z" fill="#A26D5A" />
  <path transform="translate(1489,142)"
    d="m0 0m-1 1m-1 1m-1 1m-3 1 3 1-3 2zm-1 3m-1 1m-3 1 3 1-6 5 1-4z" fill="#A7715D" />
</svg>